# AST/ASF file generated using VICON BodyLanguage
# -----------------------------------------------
:version 1.10
:name VICON
:units
  mass 1.0
  length 0.45
  angle deg
:documentation
   .ast/.asf automatically generated from VICON data using
   VICON BodyBuilder and BodyLanguage model FoxedUp or BRILLIANT.MOD
:root
   order TX TY TZ RX RY RZ
   axis XYZ
   position 0 0 0  
   orientation 0 0 0 
:bonedata
  begin
     id 1 
     name lhipjoint
     direction 0.578396 -0.714046 0.394458 
     length 2.21935 
     axis 0 0 0  XYZ
  end
  begin
     id 2 
     name lfemur
     direction 0.34202 -0.939693 0  
     length 6.39105  
     axis 0 0 20  XYZ
    dof rx ry rz
    limits (-160.0 20.0)
           (-70.0 70.0)
           (-60.0 70.0)
  end
  begin
     id 3 
     name ltibia
     direction 0.34202 -0.939693 0   
     length 6.99037   
     axis 0 0 20   XYZ
    dof rx
    limits (-10.0 170.0)
  end
  begin
     id 4 
     name lfoot
     direction 0.0582372 -0.160005 0.985397   
     length 2.06111   
     axis -90 7.62852e-016 20   XYZ
    dof rx rz
    limits (-45.0 90.0)
           (-70.0 20.0)
  end
  begin
     id 5 
     name ltoes
     direction 1.53556e-011 -4.21875e-011 1   
     length 1.04074   
     axis -90 7.62852e-016 20   XYZ
    dof rx
    limits (-90.0 20.0)
  end
  begin
     id 6 
     name rhipjoint
     direction -0.558179 -0.726269 0.40121   
     length 2.182  
     axis 0 0 0  XYZ 
  end
  begin
     id 7 
     name rfemur
     direction -0.34202 -0.939693 0   
     length 6.51172   
     axis 0 0 -20   XYZ
    dof rx ry rz
    limits (-160.0 20.0)
           (-70.0 70.0)
           (-70.0 60.0)
  end
  begin
     id 8 
     name rtibia
     direction -0.34202 -0.939693 0   
     length 7.02607   
     axis 0 0 -20   XYZ
    dof rx
    limits (-10.0 170.0)
 end
 begin
     id 9 
     name rfoot
     direction -0.0788856 -0.216737 0.973038   
     length 1.96734  
     axis -90 -7.62852e-016 -20   XYZ
    dof rx rz
    limits (-45.0 90.0)
           (-20.0 70.0)
  end
  begin
     id 10 
     name rtoes
     direction -1.53567e-011 -4.21783e-011 1   
     length 0.990825   
     axis -90 -7.62852e-016 -20   XYZ
    dof rx
    limits (-90.0 20.0)
  end
  begin
     id 11 
     name lowerback
     direction 0.00668177 0.999323 -0.0361741   
     length 1.7655   
     axis 0 0 0   XYZ
    dof rx ry rz
    limits (-20.0 45.0)
           (-30.0 30.0)
           (-30.0 30.0)
  end
  begin
     id 12 
     name upperback
     direction -0.00222086 0.99851 0.0545167   
     length 1.74912   
     axis 0 0 0   XYZ
    dof rx ry rz
    limits (-20.0 45.0)
           (-30.0 30.0)
           (-30.0 30.0)
  end
  begin
     id 13 
     name thorax
     direction -0.00733971 0.997496 0.0703443   
     length 1.75715   
     axis 0 0 0   XYZ
    dof rx ry rz
    limits (-20.0 45.0)
           (-30.0 30.0)
           (-30.0 30.0)
  end
  begin
     id 14 
     name lowerneck
     direction 0.0279797 0.994795 0.0979765   
     length 1.46939   
     axis 0 0 0   XYZ
    dof rx ry rz
    limits (-20.0 45.0)
           (-30.0 30.0)
           (-30.0 30.0)
  end
  begin
     id 15 
     name upperneck
     direction 0.00339187 0.976776 -0.214238   
     length 1.48018   
     axis 0 0 0   XYZ
    dof rx ry rz
    limits (-20.0 45.0)
           (-30.0 30.0)
           (-30.0 30.0)
  end
  begin
     id 16
     name head
     direction -0.00263506 0.996603 -0.0823096  
     length 1.4976  
     axis 0 0 0   XYZ
    dof rx ry rz
    limits (-20.0 45.0)
           (-30.0 30.0)
           (-30.0 30.0)
  end
  begin
     id 17 
     name lclavicle
     direction 0.894044 0.44508 -0.0508781  
     length 3.03024  
     axis 0 0 0   XYZ
    dof ry rz
    limits (-20.0 10.0)
           (0.0 20.0)
  end
  begin
     id 18 
     name lhumerus
     direction 1 -4.48961e-011 -2.39475e-018   
     length 4.4661   
     axis 180 -30 -90   XYZ
    dof rx ry rz
    limits (-60.0 90.0)
           (-90.0 90.0)
           (-90.0 90.0)
  end
  begin
     id 19
     name lradius
     direction 1 -4.48961e-011 9.29328e-028   
     length 3.41414   
     axis 180 -30 -90   XYZ
    dof rx
    limits (-10.0 170.0)
  end
  begin
     id 20
     name lwrist
     direction 1 -4.48985e-011 1.53461e-026   
     length 1.70707   
     axis -1.09697e-014 90 90   XYZ
    dof ry
    limits (-180.0 0.0)
 end
  begin
     id 21 
     name lhand
     direction 1 -4.48966e-011 3.06923e-026   
     length 0.328298   
     axis -1.95843e-014 90 90   XYZ
    dof rx rz
    limits (-90.0 90.0)
           (-45.0 45.0)
  end
  begin
     id 22 
     name lfingers
     direction 1 -4.48893e-011 6.13845e-026   
     length 0.264682   
     axis -3.91686e-014 90 90   XYZ
    dof rx
    limits (0.0 90.0)
  end
  begin
     id 23
     name lthumb
     direction 0.707107 -6.34876e-011 0.707107   
     length 0.380032   
     axis -90 45 2.85299e-015   XYZ
    dof rx rz
    limits (-45.0 45.0)
           (-45.0 45.0)
  end
  begin
     id 24 
     name rclavicle
     direction -0.936955 0.347862 -0.0332887   
     length 3.26927  
     axis 0 0 0   XYZ 
    dof ry rz
    limits (-10.0 20.0)
           (-20.0 0.0)
  end
  begin
     id 25 
     name rhumerus
     direction -1 -4.4896e-011 1.78637e-018  
     length 4.40431   
     axis 180 30 90   XYZ
    dof rx ry rz
    limits (-90.0 60.0)
           (-90.0 90.0)
           (-90.0 90.0)
  end
  begin
     id 26 
     name rradius
     direction -1 -4.48955e-011 9.34036e-027   
     length 3.04688   
     axis 180 30 90   XYZ
    dof rx
    limits (-10.0 170.0)
  end
  begin
     id 27 
     name rwrist
     direction -1 -4.49011e-011 1.53461e-026   
     length 1.52344   
     axis -1.09697e-014 -90 -90   XYZ
    dof ry
    limits (-180.0 0.0)
  end
  begin
     id 28
     name rhand
     direction -1 -4.48834e-011 3.06923e-026   
     length 0.500489   
     axis -1.95843e-014 -90 -90   XYZ
    dof rx rz
    limits (-90.0 90.0)
           (-45.0 45.0)
  end
  begin
     id 29
     name rfingers
     direction -1 -4.48967e-011 6.13845e-026   
     length 0.403507   
     axis -3.91686e-014 -90 -90   XYZ
    dof rx
    limits (0.0 90.0)
  end
  begin
     id 30
     name rthumb
     direction -0.707107 -6.34826e-011 0.707107   
     length 0.579358   
     axis -90 -45 -2.85299e-015   XYZ
    dof rx rz
    limits (-45.0 45.0)
           (-45.0 45.0)
  end
:hierarchy
  begin
    root lhipjoint rhipjoint lowerback
    lhipjoint lfemur
    lfemur ltibia
    ltibia lfoot
    lfoot ltoes
    rhipjoint rfemur
    rfemur rtibia
    rtibia rfoot
    rfoot rtoes
    lowerback upperback
    upperback thorax
    thorax lowerneck lclavicle rclavicle
    lowerneck upperneck
    upperneck head
    lclavicle lhumerus
    lhumerus lradius
    lradius lwrist
    lwrist lhand lthumb
    lhand lfingers
    rclavicle rhumerus
    rhumerus rradius
    rradius rwrist
    rwrist rhand rthumb
    rhand rfingers
  end

#!OML:ASF H:\IndianDance\Patient Classification 1\Patient 1\Session 1\dancer.ASF
:FULLY-SPECIFIED
:DEGREES
516
root -6.92609 14.6406 4.31019 -176.03 -41.5213 -180.067
lowerback 6.90257 4.58804 5.94175
upperback -6.76831 6.96341 6.49421
thorax -11.3418 2.94107 2.63922
lowerneck -16.6353 -4.80794 -5.06616
upperneck 21.8147 -5.42192 -1.30071
head 9.7808 -3.23418 -0.360643
rclavicle 1.27222e-014 -7.95139e-014
rhumerus 5.62517 -47.4625 -57.4229
rradius 74.2904
rwrist -95.9276
rhand 39.4227 -4.51383
rfingers 7.12502
rthumb 61.9149 -16.1133
lclavicle 1.27222e-014 -7.95139e-014
lhumerus 12.2914 18.5841 -0.0372547
lradius 26.2435
lwrist 11.8742
lhand 25.7984 35.0223
lfingers 7.12502
lthumb 49.8932 416.301
rfemur -32.6907 -31.3686 15.8351
rtibia 87.5499
rfoot -11.5512 -2.39781
rtoes 3.38792
lfemur -27.8431 10.9843 -34.6324
ltibia 47.4248
lfoot -17.6951 7.79882
ltoes 12.687
517
root -6.95993 14.669 4.33093 -176.018 -41.9374 -179.998
lowerback 6.78886 4.62847 5.9818
upperback -6.76513 7.0094 6.49646
thorax -11.2653 2.96233 2.61999
lowerneck -16.6976 -4.75585 -4.95626
upperneck 21.8545 -5.37971 -1.2649
head 9.8027 -3.20041 -0.362424
rclavicle 1.2762e-013 4.77083e-014
rhumerus 6.21355 -47.7727 -57.9088
rradius 73.5191
rwrist -95.6847
rhand 39.2935 -4.61595
rfingers 7.12502
rthumb 61.807 -16.3481
lclavicle 1.2762e-013 4.77083e-014
lhumerus 12.2693 18.5155 -0.0687425
lradius 26.2488
lwrist 11.8637
lhand 25.8486 34.9912
lfingers 7.12502
lthumb 49.9391 416.246
rfemur -32.3058 -31.5799 16.3861
rtibia 87.2646
rfoot -10.3815 -0.365762
rtoes 0.974764
lfemur -27.5701 10.8944 -34.6898
ltibia 46.8619
lfoot -18.4041 6.56918
ltoes 20.126
518
root -6.99188 14.6896 4.35224 -175.914 -42.3792 -180.008
lowerback 6.64577 4.63478 5.945
upperback -6.77452 6.99902 6.48798
thorax -11.1919 2.96308 2.64179
lowerneck -16.6719 -4.73326 -4.95778
upperneck 21.8078 -5.36999 -1.15919
head 9.78403 -3.18144 -0.322229
rclavicle -1.98785e-014 -2.8625e-014
rhumerus 6.8472 -48.0347 -58.5021
rradius 72.7831
rwrist -95.3697
rhand 39.0837 -4.57374
rfingers 7.12502
rthumb 61.6313 -16.5192
lclavicle -1.98785e-014 -2.8625e-014
lhumerus 12.1235 18.3068 -0.222898
lradius 26.295
lwrist 12.0485
lhand 25.8897 34.82
lfingers 7.12502
lthumb 49.9768 416.055
rfemur -32.0147 -31.6835 16.8922
rtibia 86.8638
rfoot -8.98238 2.01343
rtoes -0.239846
lfemur -27.2622 10.7999 -34.828
ltibia 46.3059
lfoot -18.0333 6.10163
ltoes 19.4833
519
root -7.02446 14.7157 4.37475 -175.842 -42.8358 -179.963
lowerback 6.47985 4.68274 5.98772
upperback -6.7816 7.04892 6.46675
thorax -11.0915 2.98592 2.59872
lowerneck -16.7243 -4.7608 -4.96125
upperneck 21.8515 -5.41771 -1.09548
head 9.81205 -3.19569 -0.308184
rclavicle -1.51076e-014 1.59028e-014
rhumerus 7.31829 -48.2978 -58.865
rradius 72.0779
rwrist -95.185
rhand 38.6478 -4.30433
rfingers 7.12502
rthumb 61.2651 -16.6842
lclavicle -1.51076e-014 1.59028e-014
lhumerus 12.1374 18.179 -0.238946
lradius 26.3211
lwrist 12.1813
lhand 25.8276 34.7137
lfingers 7.12502
lthumb 49.9198 415.978
rfemur -31.7009 -31.7271 17.4311
rtibia 86.2574
rfoot -7.19208 4.68901
rtoes 0.0799392
lfemur -27.0488 10.7915 -34.9192
ltibia 45.7886
lfoot -17.633 5.46495
ltoes 19.5151
520
root -7.05515 14.7403 4.39828 -175.727 -43.3129 -179.912
lowerback 6.31414 4.71006 6.00411
upperback -6.82201 7.06978 6.46412
thorax -11.0351 2.99533 2.59529
lowerneck -16.7232 -4.77568 -4.98714
upperneck 21.8623 -5.44317 -1.04119
head 9.81862 -3.20267 -0.288699
rclavicle -8.50798e-014 -6.67916e-014
rhumerus 7.7059 -48.4113 -59.1551
rradius 71.4125
rwrist -95.035
rhand 37.9458 -3.88826
rfingers 7.12502
rthumb 60.6716 -16.9436
lclavicle -8.50798e-014 -6.67916e-014
lhumerus 12.0705 18.1715 -0.238007
lradius 26.3721
lwrist 12.1449
lhand 25.9208 34.666
lfingers 7.12502
lthumb 50.0052 415.886
rfemur -31.4632 -32.0212 17.9531
rtibia 85.4993
rfoot -5.59108 7.00135
rtoes -0.695268
lfemur -26.9215 10.8874 -35.0269
ltibia 45.2989
lfoot -17.1332 4.78809
ltoes 18.4807
521
root -7.08428 14.7684 4.42196 -175.555 -43.8797 -179.93
lowerback 6.1081 4.69379 5.98353
upperback -6.8432 7.02337 6.4307
thorax -10.9307 2.97745 2.59092
lowerneck -16.848 -4.77331 -4.92213
upperneck 21.9552 -5.44771 -1.04393
head 9.8726 -3.19952 -0.305828
rclavicle 7.83212e-014 3.18055e-015
rhumerus 8.09434 -48.5673 -59.5305
rradius 70.8964
rwrist -94.8072
rhand 36.8443 -3.61987
rfingers 7.12502
rthumb 59.7318 -17.6787
lclavicle 7.83212e-014 3.18055e-015
lhumerus 12.0178 18.1801 -0.333633
lradius 26.3974
lwrist 12.0785
lhand 26.2731 34.5135
lfingers 7.12502
lthumb 50.3274 415.563
rfemur -31.213 -31.7368 18.559
rtibia 84.5533
rfoot -4.10925 9.60185
rtoes 0.913133
lfemur -26.8369 10.8367 -35.1366
ltibia 44.8646
lfoot -16.6741 3.85827
ltoes 18.8105
522
root -7.11191 14.7939 4.44791 -175.414 -44.4409 -179.927
lowerback 5.99518 4.70752 5.97401
upperback -6.90202 7.03162 6.41927
thorax -10.9289 2.98137 2.59028
lowerneck -16.9251 -4.79806 -4.94283
upperneck 22.0766 -5.46891 -1.06755
head 9.93083 -3.21557 -0.318236
rclavicle -6.08281e-014 9.85972e-014
rhumerus 8.41699 -48.6716 -59.8129
rradius 70.3842
rwrist -94.5208
rhand 35.6459 -3.41419
rfingers 7.12502
rthumb 58.6985 -18.4919
lclavicle -6.08281e-014 9.85972e-014
lhumerus 11.9422 17.9481 -0.365178
lradius 26.462
lwrist 12.452
lhand 25.9393 34.5329
lfingers 7.12502
lthumb 50.0222 415.744
rfemur -30.9836 -32.111 19.0688
rtibia 83.4634
rfoot -3.23849 11.9413
rtoes 0.831926
lfemur -26.7273 10.8063 -35.2521
ltibia 44.4399
lfoot -16.1621 3.10339
ltoes 18.0059
523
root -7.13718 14.8191 4.47556 -175.194 -44.9805 -179.96
lowerback 5.84433 4.71471 5.93281
upperback -6.9557 7.0231 6.40049
thorax -10.9006 2.98066 2.60391
lowerneck -16.9597 -4.79473 -4.9405
upperneck 22.0795 -5.46288 -1.05275
head 9.93856 -3.20945 -0.313421
rclavicle -2.38542e-014 -9.54166e-015
rhumerus 8.95831 -48.7552 -60.3551
rradius 69.8165
rwrist -94.0832
rhand 34.5405 -3.07243
rfingers 7.12502
rthumb 57.7362 -19.0282
lclavicle -2.38542e-014 -9.54166e-015
lhumerus 11.8973 18.0208 -0.363933
lradius 26.4495
lwrist 12.4197
lhand 26.1651 34.3113
lfingers 7.12502
lthumb 50.2286 415.413
rfemur -30.8061 -32.0542 19.6113
rtibia 82.241
rfoot -2.53297 13.2911
rtoes 2.70287
lfemur -26.7139 10.8897 -35.4043
ltibia 44.0507
lfoot -15.6283 1.97058
ltoes 19.845
524
root -7.16365 14.8501 4.50408 -175.021 -45.5115 -179.944
lowerback 5.68419 4.72732 5.95743
upperback -7.00428 7.02586 6.38334
thorax -10.8534 2.97996 2.58264
lowerneck -16.9682 -4.78976 -5.05277
upperneck 22.1488 -5.44699 -0.966031
head 9.97112 -3.2023 -0.264487
rclavicle 4.37326e-015 6.36111e-014
rhumerus 9.315 -48.8084 -60.7086
rradius 69.2877
rwrist -93.792
rhand 33.5552 -2.82266
rfingers 7.12502
rthumb 56.8717 -19.5151
lclavicle 4.37326e-015 6.36111e-014
lhumerus 11.8455 18.1491 -0.330246
lradius 26.4499
lwrist 12.1641
lhand 26.602 34.102
lfingers 7.12502
lthumb 50.6277 414.989
rfemur -30.5673 -31.7664 20.2356
rtibia 80.7839
rfoot -2.14117 13.5198
rtoes 2.73628
lfemur -26.681 10.7214 -35.4983
ltibia 43.6746
lfoot -15.0609 1.25234
ltoes 19.8726
525
root -7.18724 14.8734 4.53475 -174.853 -46.0622 -179.929
lowerback 5.55824 4.70843 5.99957
upperback -7.03973 6.99171 6.37048
thorax -10.8101 2.96043 2.55935
lowerneck -16.8878 -4.7824 -4.94419
upperneck 21.9968 -5.43878 -1.06933
head 9.89484 -3.19777 -0.311322
rclavicle -1.19271e-015 -4.13472e-014
rhumerus 9.83025 -48.8825 -61.2194
rradius 68.7319
rwrist -93.4743
rhand 32.8866 -2.67135
rfingers 7.12502
rthumb 56.2818 -19.8404
lclavicle -1.19271e-015 -4.13472e-014
lhumerus 11.8896 18.5808 -0.0991779
lradius 26.338
lwrist 11.7473
lhand 26.5859 33.9484
lfingers 7.12502
lthumb 50.6131 414.843
rfemur -30.3002 -31.8549 20.7468
rtibia 79.151
rfoot -1.61189 13.3312
rtoes 2.50382
lfemur -26.7044 10.8417 -35.6257
ltibia 43.3678
lfoot -14.4958 0.326194
ltoes 19.7063
526
root -7.21139 14.9017 4.5669 -174.763 -46.5926 -179.815
lowerback 5.45192 4.71258 6.11891
upperback -7.07379 6.99699 6.37418
thorax -10.7712 2.953 2.50539
lowerneck -16.8993 -4.77117 -5.07263
upperneck 22.0295 -5.40401 -0.995993
head 9.9147 -3.18372 -0.261172
rclavicle -1.66979e-014 -4.77083e-014
rhumerus 10.1508 -48.8662 -61.4816
rradius 68.1533
rwrist -93.3668
rhand 32.575 -2.2327
rfingers 7.12502
rthumb 56.0059 -19.6179
lclavicle -1.66979e-014 -4.77083e-014
lhumerus 11.5988 18.151 -0.40533
lradius 26.4743
lwrist 12.2367
lhand 26.5308 33.8734
lfingers 7.12502
lthumb 50.5627 414.796
rfemur -29.9711 -31.6188 21.368
rtibia 77.1953
rfoot -0.732996 12.3481
rtoes 2.68321
lfemur -26.8108 11.0187 -35.6996
ltibia 43.1281
lfoot -13.8491 -0.560412
ltoes 19.1846
527
root -7.23455 14.9218 4.59973 -174.686 -47.1077 -179.709
lowerback 5.34528 4.6941 6.24201
upperback -7.08433 6.97101 6.3852
thorax -10.7057 2.9318 2.46163
lowerneck -16.7321 -4.81366 -5.05837
upperneck 21.8045 -5.44268 -1.11262
head 9.80056 -3.20968 -0.300107
rclavicle 4.77083e-014 -1.36764e-013
rhumerus 10.6565 -48.8167 -61.9954
rradius 67.5674
rwrist -93.3253
rhand 32.1975 -1.8796
rfingers 7.12502
rthumb 55.671 -19.5216
lclavicle 4.77083e-014 -1.36764e-013
lhumerus 11.7349 18.8833 -0.105631
lradius 26.2232
lwrist 11.3729
lhand 26.7206 33.7463
lfingers 7.12502
lthumb 50.736 414.574
rfemur -29.5744 -30.9544 21.9877
rtibia 74.9529
rfoot 0.42097 10.7711
rtoes 2.87296
lfemur -26.8738 11.3079 -35.7904
ltibia 42.9975
lfoot -13.3128 -1.57746
ltoes 19.6906
528
root -7.256 14.9431 4.63317 -174.601 -47.6572 -179.601
lowerback 5.23954 4.72607 6.35786
upperback -7.11402 7.01298 6.38453
thorax -10.6624 2.9427 2.39985
lowerneck -16.7174 -4.83051 -5.10094
upperneck 21.7556 -5.45244 -1.10805
head 9.78236 -3.21504 -0.291414
rclavicle -6.79844e-014 -8.5875e-014
rhumerus 11.0439 -48.9809 -62.329
rradius 67.078
rwrist -93.1104
rhand 31.8647 -1.78879
rfingers 7.12502
rthumb 55.3751 -19.6526
lclavicle -6.79844e-014 -8.5875e-014
lhumerus 11.8092 19.1273 0.0710448
lradius 26.1216
lwrist 11.2082
lhand 26.4343 33.6881
lfingers 7.12502
lthumb 50.4746 414.658
rfemur -29.108 -30.9681 22.4474
rtibia 72.4284
rfoot 1.64228 9.64922
rtoes 2.99272
lfemur -27.0562 11.6579 -35.9047
ltibia 42.9773
lfoot -12.6889 -2.59691
ltoes 19.7828
529
root -7.27687 14.9616 4.66786 -174.579 -48.2163 -179.445
lowerback 5.14471 4.72762 6.51576
upperback -7.09001 7.01681 6.40263
thorax -10.5623 2.9353 2.34006
lowerneck -16.7541 -4.83284 -5.11972
upperneck 21.6418 -5.43385 -1.12777
head 9.74864 -3.20538 -0.291011
rclavicle 6.55989e-014 -6.36111e-015
rhumerus 11.4569 -48.9851 -62.6602
rradius 66.5777
rwrist -92.9799
rhand 31.52 -1.36299
rfingers 7.12502
rthumb 55.0681 -19.4523
lclavicle 6.55989e-014 -6.36111e-015
lhumerus 11.537 18.6901 -0.222667
lradius 26.217
lwrist 11.7825
lhand 26.0823 33.7692
lfingers 7.12502
lthumb 50.153 414.911
rfemur -28.6158 -30.4468 22.9095
rtibia 69.9539
rfoot 2.86375 9.19672
rtoes 8.68869
lfemur -27.2648 12.1134 -36.0114
ltibia 43.0372
lfoot -12.0019 -3.64048
ltoes 19.933
